#!OML:ASF X:\für Bonn\!DataBase\2005_08_11_Bastian_Final\c3d\Bastian.ASF
:FULLY-SPECIFIED
:DEGREES
125
root -6.78581 23.0045 -2.64789 163.601 -52.9065 -175.068
lowerback 4.1051 -5.27138 -5.47077
upperback 0.488544 -7.31904 -1.3909
thorax -1.28755 -3.64147 1.94783
lowerneck 4.68358 -16.4 -9.3796
upperneck 1.46143 -23.0613 12.2172
head 2.1857 -11.7288 4.44044
rclavicle -2.65775e-013 -3.97569e-015
rhumerus -329.1 -10.6015 -387.001
rradius 75.6089
rwrist -0.587992
rhand -58.749 986.886
rfingers 7.12502
rthumb -30.9601 65.7045
lclavicle -2.65775e-013 -3.97569e-015
lhumerus 95.5176 -6.61972 55.7331
lradius 68.8599
lwrist -151.921
lhand -11.8206 53.7467
lfingers 7.12502
lthumb 14.2299 83.2392
rfemur 2.68492 4.59339 24.4093
rtibia 37.5622
rfoot 11.7177 -3.54359
rtoes -24.6941
lfemur 9.22652 8.90189 -12.6747
ltibia 33.8708
lfoot 8.92367 1.8172
ltoes -39.5108
126
root -6.77501 23.0445 -2.6861 163.316 -52.7648 -174.576
lowerback 4.00073 -5.30828 -5.22606
upperback 0.507227 -7.34516 -1.29893
thorax -1.22641 -3.65654 1.89783
lowerneck 4.67125 -16.3681 -9.48597
upperneck 1.48734 -23.0386 12.359
head 2.2216 -11.719 4.48894
rclavicle -2.0276e-014 -4.29375e-014
rhumerus -327.772 -10.4664 -387.314
rradius 72.9238
rwrist -2.18557
rhand -59.01 989.303
rfingers 7.12502
rthumb -31.2089 63.3351
lclavicle -2.0276e-014 -4.29375e-014
lhumerus 95.7717 -7.11813 55.7457
lradius 67.5319
lwrist -152.206
lhand -12.2022 53.576
lfingers 7.12502
lthumb 13.8621 83.094
rfemur 2.3695 4.60285 24.7781
rtibia 37.2629
rfoot 11.3765 -4.01281
rtoes -24.0107
lfemur 8.73184 9.03769 -12.6732
ltibia 33.8775
lfoot 9.31068 1.33848
ltoes -40.1494
127
root -6.76308 23.0711 -2.72328 163.03 -52.6216 -174.131
lowerback 3.96699 -5.35161 -5.00104
upperback 0.516524 -7.38722 -1.22375
thorax -1.21322 -3.67816 1.84998
lowerneck 4.63038 -16.3199 -9.62362
upperneck 1.60366 -23.0008 12.4716
head 2.28722 -11.6997 4.52736
rclavicle -6.93758e-014 -1.11319e-014
rhumerus -326.258 -10.2721 -387.683
rradius 70.0643
rwrist -3.9429
rhand -59.237 1167.49
rfingers 7.12502
rthumb -31.4252 60.1746
lclavicle -6.93758e-014 -1.11319e-014
lhumerus 96.0178 -7.57048 55.6369
lradius 66.1162
lwrist -152.394
lhand -12.5624 53.1556
lfingers 7.12502
lthumb 13.5149 82.6971
rfemur 2.07826 4.51812 25.0731
rtibia 37.0388
rfoot 11.04 -4.62835
rtoes -23.1772
lfemur 8.29602 9.10867 -12.6993
ltibia 33.8269
lfoot 9.70323 0.802414
ltoes -40.9677
128
root -6.7521 23.0847 -2.76003 162.7 -52.4421 -173.707
lowerback 4.00942 -5.35724 -4.76311
upperback 0.528662 -7.38454 -1.17289
thorax -1.24749 -3.67668 1.77729
lowerneck 4.6832 -16.2832 -9.7008
upperneck 1.61816 -22.9736 12.5891
head 2.30281 -11.6904 4.57373
rclavicle -1.45113e-014 5.1684e-014
rhumerus -324.69 -10.0925 -387.948
rradius 67.0418
rwrist -5.86386
rhand -59.4733 1163.7
rfingers 7.12502
rthumb -31.6503 56.4294
lclavicle -1.45113e-014 5.1684e-014
lhumerus 96.378 -8.06425 55.4438
lradius 64.5168
lwrist -152.508
lhand -12.8584 52.5887
lfingers 7.12502
lthumb 13.2297 82.1489
rfemur 1.83988 4.29542 25.2882
rtibia 36.8658
rfoot 10.6799 -5.25576
rtoes -22.8072
lfemur 7.9403 9.20142 -12.7025
ltibia 33.7565
lfoot 10.0484 0.236029
ltoes -41.8282
129
root -6.73951 23.0832 -2.79633 162.336 -52.2488 -173.281
lowerback 4.1212 -5.35807 -4.54326
upperback 0.549004 -7.38015 -1.12067
thorax -1.30959 -3.67389 1.72253
lowerneck 4.63932 -16.2469 -9.71549
upperneck 1.67822 -22.9412 12.6821
head 2.3367 -11.6746 4.59574
rclavicle -1.33186e-014 8.74653e-015
rhumerus -323.043 -9.88544 -388.171
rradius 63.9327
rwrist -7.97034
rhand -59.5881 1159.47
rfingers 7.12502
rthumb -31.7596 52.2165
lclavicle -1.33186e-014 8.74653e-015
lhumerus 96.7764 -8.50406 55.1185
lradius 62.8437
lwrist -152.545
lhand -12.9879 51.8039
lfingers 7.12502
lthumb 13.1049 81.3722
rfemur 1.6362 3.97072 25.4653
rtibia 36.7181
rfoot 10.3404 -5.92582
rtoes -23.0687
lfemur 7.59003 9.19709 -12.706
ltibia 33.7095
lfoot 10.2837 -0.212986
ltoes -42.4353
130
root -6.72592 23.0603 -2.83198 161.915 -52.0246 -172.872
lowerback 4.29944 -5.34156 -4.35147
upperback 0.588113 -7.35666 -1.05696
thorax -1.38541 -3.66162 1.69961
lowerneck 4.57066 -16.2288 -9.67281
upperneck 1.72893 -22.9202 12.704
head 2.35816 -11.6624 4.5896
rclavicle -1.2921e-014 1.98785e-014
rhumerus -321.421 -9.61072 -388.246
rradius 60.8348
rwrist -10.1839
rhand -59.6614 1154.9
rfingers 7.12502
rthumb -31.8294 47.6592
lclavicle -1.2921e-014 1.98785e-014
lhumerus 97.1615 -9.05512 54.941
lradius 60.9594
lwrist -152.746
lhand -12.9779 51.0156
lfingers 7.12502
lthumb 13.1145 80.5832
rfemur 1.50247 3.48932 25.57
rtibia 36.5932
rfoot 10.1043 -6.51309
rtoes -23.4049
lfemur 7.28166 9.09985 -12.7115
ltibia 33.6944
lfoot 10.4564 -0.381656
ltoes -42.3355
131
root -6.70993 23.0157 -2.86676 161.383 -51.768 -172.467
lowerback 4.61367 -5.30814 -4.16495
upperback 0.655307 -7.31805 -1.01396
thorax -1.51082 -3.64159 1.67051
lowerneck 4.5307 -16.2071 -9.5276
upperneck 1.73064 -22.8836 12.6795
head 2.34199 -11.6438 4.56627
rclavicle 7.09661e-014 -6.36111e-015
rhumerus -319.905 -9.29615 -388.208
rradius 57.8154
rwrist -12.4698
rhand -59.6813 1149.94
rfingers 7.12502
rthumb -31.8484 42.7003
lclavicle 7.09661e-014 -6.36111e-015
lhumerus 97.4885 -9.7394 54.9227
lradius 58.8851
lwrist -153.091
lhand -12.8871 50.2007
lfingers 7.12502
lthumb 13.202 79.7626
rfemur 1.48992 2.95531 25.6638
rtibia 36.4787
rfoot 10.0258 -7.00218
rtoes -23.7553
lfemur 7.05606 8.9835 -12.6699
ltibia 33.7326
lfoot 10.5714 -0.306266
ltoes -41.546
132
root -6.69364 22.9559 -2.90533 160.844 -51.4631 -172.144
lowerback 4.9691 -5.24917 -4.07144
upperback 0.747326 -7.251 -0.960906
thorax -1.62212 -3.60794 1.70273
lowerneck 4.42821 -16.193 -9.40085
upperneck 1.79002 -22.855 12.6167
head 2.35128 -11.6254 4.52529
rclavicle -1.82882e-013 -7.95139e-016
rhumerus -318.479 -8.86108 -387.923
rradius 54.8964
rwrist -14.8714
rhand -59.6656 1144.46
rfingers 7.12502
rthumb -31.8334 37.2246
lclavicle -1.82882e-013 -7.95139e-016
lhumerus 97.7724 -10.516 55.0791
lradius 56.7217
lwrist -153.539
lhand -12.729 49.1345
lfingers 7.12502
lthumb 13.3544 78.6866
rfemur 1.56133 2.41734 25.7116
rtibia 36.3839
rfoot 10.102 -7.36658
rtoes -24.1805
lfemur 6.91493 8.85225 -12.6418
ltibia 33.8193
lfoot 10.5573 -0.129885
ltoes -40.4366
133
root -6.67694 22.8847 -2.93864 160.315 -51.1352 -171.904
lowerback 5.41353 -5.16724 -3.97914
upperback 0.845027 -7.15846 -0.926439
thorax -1.78061 -3.56101 1.72379
lowerneck 4.37639 -16.1835 -9.30648
upperneck 1.78079 -22.8337 12.6021
head 2.34225 -11.6135 4.50826
rclavicle 1.5545e-013 2.22639e-014
rhumerus -317.161 -8.36776 -387.458
rradius 52.1223
rwrist -17.4264
rhand -59.4523 1138.53
rfingers 7.12502
rthumb -31.6302 31.2457
lclavicle 1.5545e-013 2.22639e-014
lhumerus 98.1355 -11.2529 55.2273
lradius 54.4414
lwrist -153.849
lhand -12.4554 47.7635
lfingers 7.12502
lthumb 13.6181 77.298
rfemur 1.65864 1.80574 25.6554
rtibia 36.3427
rfoot 10.2338 -7.51182
rtoes -25.0257
lfemur 6.8309 8.67764 -12.6854
ltibia 33.907
lfoot 10.4377 0.160912
ltoes -39.44
134
root -6.6583 22.803 -2.97027 159.775 -50.7373 -171.625
lowerback 5.83237 -5.08117 -3.83587
upperback 0.927633 -7.05523 -0.886271
thorax -1.94615 -3.50868 1.71966
lowerneck 4.42789 -16.1342 -9.22701
upperneck 1.71506 -22.7635 12.6208
head 2.30046 -11.5823 4.51843
rclavicle -4.1546e-014 -4.77083e-015
rhumerus -315.926 -7.76483 -386.828
rradius 49.4918
rwrist -20.0531
rhand -59.1055 1132.02
rfingers 7.12502
rthumb -31.2999 24.6783
lclavicle -4.1546e-014 -4.77083e-015
lhumerus 98.5182 -11.9219 55.324
lradius 52.1257
lwrist -153.918
lhand -12.2895 45.9058
lfingers 7.12502
lthumb 13.778 75.4296
rfemur 1.68479 1.20604 25.6241
rtibia 36.3904
rfoot 10.4307 -7.47249
rtoes -25.8601
lfemur 6.75085 8.45042 -12.6941
ltibia 33.9558
lfoot 10.2145 0.52542
ltoes -38.6275
135
root -6.63889 22.7088 -3.00089 159.352 -50.3451 -171.395
lowerback 6.13622 -4.99476 -3.73432
upperback 1.0308 -6.94669 -0.824964
thorax -2.0188 -3.45602 1.74502
lowerneck 4.32632 -16.1219 -9.14294
upperneck 1.68921 -22.7272 12.5813
head 2.29096 -11.5601 4.49315
rclavicle -2.40927e-013 6.36111e-015
rhumerus -314.72 -7.15982 -386.033
rradius 47.0095
rwrist -22.7515
rhand -58.449 1124.95
rfingers 7.12502
rthumb -30.6741 17.4913
lclavicle -2.40927e-013 6.36111e-015
lhumerus 98.9286 -12.5787 55.593
lradius 49.7185
lwrist -153.842
lhand -12.2997 43.7076
lfingers 7.12502
lthumb 13.7682 73.232
rfemur 1.57794 0.615858 25.5461
rtibia 36.5221
rfoot 10.6993 -7.20061
rtoes -26.6579
lfemur 6.60587 8.15647 -12.7637
ltibia 33.954
lfoot 9.94957 0.944227
ltoes -37.9157
136
root -6.61873 22.6004 -3.03063 159.04 -49.9126 -171.178
lowerback 6.33526 -4.90283 -3.58411
upperback 1.07877 -6.82272 -0.780061
thorax -2.09851 -3.39459 1.71839
lowerneck 4.39711 -16.0879 -9.0908
upperneck 1.57854 -22.6693 12.5766
head 2.23442 -11.5351 4.50302
rclavicle -1.25831e-013 -2.78299e-014
rhumerus -313.668 -6.3943 -385.007
rradius 44.7479
rwrist -25.7056
rhand -57.4391 1117.79
rfingers 7.12502
rthumb -29.7107 10.1498
lclavicle -1.25831e-013 -2.78299e-014
lhumerus 99.2377 -13.318 56.0288
lradius 47.2481
lwrist -153.549
lhand -12.7128 41.126
lfingers 7.12502
lthumb 13.3701 70.677
rfemur 1.32299 -0.0286917 25.4322
rtibia 36.7013
rfoot 11.0279 -6.61402
rtoes -27.3096
lfemur 6.3805 7.89069 -12.8192
ltibia 33.9138
lfoot 9.72492 1.37022
ltoes -37.1451
